<?xml version="1.0" encoding="UTF-8"?>
<svg xmlns="http://www.w3.org/2000/svg" xmlns:xlink="http://www.w3.org/1999/xlink" viewBox="0 0 1000 500">
  <defs>
    <style>
      .cls-1 {
        fill: url(#linear-gradient);
      }

      .cls-2, .cls-3 {
        fill: #6a6a93;
      }

      .cls-4 {
        fill: #fff;
      }

      .cls-5 {
        fill: #9999c4;
      }

      .cls-6, .cls-7 {
        fill: #8484af;
      }

      .cls-8 {
        fill: #4a4a66;
      }

      .cls-9 {
        fill: #2f2f3f;
      }

      .cls-10 {
        font-size: 49.15px;
        letter-spacing: .01em;
      }

      .cls-7 {
        letter-spacing: .01em;
        stroke: #fff;
        stroke-miterlimit: 10;
      }

      .cls-11 {
        letter-spacing: 0em;
      }

      .cls-12 {
        opacity: .3;
      }

      .cls-13 {
        font-size: 78.64px;
      }

      .cls-14 {
        font-size: 17.2px;
        letter-spacing: 0em;
      }

      .cls-15 {
        opacity: .7;
      }

      .cls-16 {
        font-family: BettyNoir, 'Betty Noir';
      }

      .cls-3 {
        opacity: .6;
      }
    </style>
    <linearGradient id="linear-gradient" x1="500" y1="452.58" x2="500" y2="310" gradientUnits="userSpaceOnUse">
      <stop offset=".02" stop-color="#fff"/>
      <stop offset=".26" stop-color="#fff" stop-opacity=".99"/>
      <stop offset=".4" stop-color="#fff" stop-opacity=".96"/>
      <stop offset=".51" stop-color="#fff" stop-opacity=".91"/>
      <stop offset=".6" stop-color="#fff" stop-opacity=".83"/>
      <stop offset=".68" stop-color="#fff" stop-opacity=".73"/>
      <stop offset=".76" stop-color="#fff" stop-opacity=".61"/>
      <stop offset=".84" stop-color="#fff" stop-opacity=".46"/>
      <stop offset=".9" stop-color="#fff" stop-opacity=".29"/>
      <stop offset=".97" stop-color="#fff" stop-opacity=".11"/>
      <stop offset="1" stop-color="#fff" stop-opacity="0"/>
    </linearGradient>
  </defs>
  <g id="BACKGROUND">
    <rect class="cls-4" width="1000" height="500"/>
  </g>
  <g id="Cityscape">
    <g id="City_reflection" data-name="City reflection" class="cls-15">
      <g>
        <rect class="cls-2" x="693.26" y="309.63" width="62.08" height="68.12"/>
        <rect class="cls-2" x="699.64" y="377.75" width="46.55" height="4.11"/>
        <rect class="cls-9" x="704.9" y="308.44" width="82.59" height="44.54"/>
        <rect class="cls-9" x="792.68" y="307.5" width="106.76" height="20.26"/>
        <rect class="cls-2" x="544.63" y="309.32" width="52.19" height="65.15"/>
        <rect class="cls-9" x="567.22" y="309.32" width="49.8" height="52.52"/>
        <rect class="cls-9" x="615.9" y="309.32" width="60.63" height="56.03"/>
        <rect class="cls-6" x="464.08" y="312.65" width="44.61" height="82.19"/>
        <rect class="cls-2" x="478.48" y="309.32" width="60.42" height="60.97"/>
        <rect class="cls-5" x="406.55" y="344.06" width="26.45" height="52.46"/>
        <rect class="cls-6" x="425.59" y="336.28" width="33.29" height="66.04"/>
        <rect class="cls-2" x="354.37" y="332.77" width="48.07" height="60.14"/>
        <rect class="cls-2" x="414.77" y="332.77" width="36.46" height="58.14"/>
        <rect class="cls-2" x="381.84" y="309.63" width="87.49" height="40.73"/>
        <rect class="cls-6" x="317.23" y="407.08" width="8.55" height="15.5"/>
        <rect class="cls-6" x="318.15" y="422.59" width="6.49" height="2.53"/>
        <rect class="cls-6" x="319.31" y="425.12" width="4.16" height="6.87"/>
        <polygon class="cls-6" points="320.68 431.98 321.51 440.34 322.52 431.6 320.68 431.98"/>
        <polygon class="cls-2" points="314.09 415.84 334.22 396.52 324.16 396.52 324.16 388.35 310.64 388.35 314.09 415.84"/>
        <polygon class="cls-2" points="287.07 388.35 287.07 396.61 299.25 414.65 299.25 381.86 287.07 388.35"/>
        <rect class="cls-8" x="281.83" y="308.45" width="52.39" height="71.23"/>
        <rect class="cls-8" x="287.07" y="379.67" width="47.16" height="8.68"/>
        <rect class="cls-8" x="296.07" y="308.45" width="20.13" height="86.4"/>
        <rect class="cls-6" x="299.25" y="394.84" width="14.84" height="26.91"/>
        <rect class="cls-6" x="300.84" y="421.76" width="11.27" height="4.4"/>
        <rect class="cls-6" x="302.86" y="426.15" width="7.22" height="11.92"/>
        <polygon class="cls-6" points="305.24 438.08 306.67 452.58 308.43 437.4 305.24 438.08"/>
        <polygon class="cls-2" points="324.16 396.52 334.22 396.52 334.22 308.45 322.43 308.45 324.16 396.52"/>
        <polygon class="cls-6" points="314.09 415.84 323.09 414.65 334.22 396.52 324.16 396.52 314.09 415.84"/>
        <polygon class="cls-8" points="402.73 342.51 329.92 342.51 317.72 332.17 414.92 332.17 402.73 342.51"/>
        <rect class="cls-2" x="149.52" y="308.45" width="27.73" height="59.04"/>
        <rect class="cls-2" x="149.52" y="365.35" width="7.76" height="2.91"/>
        <rect class="cls-2" x="169.49" y="365.35" width="7.76" height="2.91"/>
        <rect class="cls-6" x="157.28" y="352.76" width="12.21" height="12.59"/>
        <rect class="cls-6" x="157.28" y="337.76" width="12.21" height="12.59"/>
        <rect class="cls-2" x="209.44" y="308.45" width="62.64" height="41.27"/>
        <polygon class="cls-8" points="229.66 341.39 189.23 341.39 149.52 308.45 229.66 308.45 229.66 341.39"/>
        <rect class="cls-8" x="229.66" y="308.45" width="20.21" height="24.32"/>
        <polygon class="cls-2" points="267.2 353.49 215.06 353.49 217.78 349.71 264.47 349.71 267.2 353.49"/>
        <rect class="cls-8" x="100.55" y="308.45" width="99.61" height="22.06"/>
        <rect class="cls-2" x="226.31" y="349.71" width="11.81" height="6.09"/>
        <g>
          <rect class="cls-2" x="226.97" y="323.16" width="2.68" height="4.17"/>
          <rect class="cls-2" x="210.25" y="323.16" width="2.68" height="4.17"/>
          <rect class="cls-2" x="193.52" y="323.16" width="2.68" height="4.17"/>
          <rect class="cls-2" x="176.8" y="323.16" width="2.68" height="4.17"/>
          <rect class="cls-2" x="160.07" y="323.16" width="2.68" height="4.17"/>
          <rect class="cls-2" x="143.35" y="323.16" width="2.68" height="4.17"/>
          <rect class="cls-2" x="126.62" y="323.16" width="2.68" height="4.17"/>
          <rect class="cls-2" x="109.9" y="323.16" width="2.68" height="4.17"/>
        </g>
        <g>
          <rect class="cls-2" x="226.97" y="315.38" width="2.68" height="4.17"/>
          <rect class="cls-2" x="210.25" y="315.38" width="2.68" height="4.17"/>
          <rect class="cls-2" x="193.52" y="315.38" width="2.68" height="4.17"/>
          <rect class="cls-2" x="176.8" y="315.38" width="2.68" height="4.17"/>
          <rect class="cls-2" x="160.07" y="315.38" width="2.68" height="4.17"/>
          <rect class="cls-2" x="143.35" y="315.38" width="2.68" height="4.17"/>
          <rect class="cls-2" x="126.62" y="315.38" width="2.68" height="4.17"/>
          <rect class="cls-2" x="109.9" y="315.38" width="2.68" height="4.17"/>
        </g>
        <rect class="cls-8" x="261.89" y="308.44" width="31.27" height="19.38"/>
        <rect class="cls-9" x="305.24" y="308.45" width="122.16" height="24.32"/>
        <polygon class="cls-9" points="334.04 335.48 309.37 335.48 305.24 332.77 338.17 332.77 334.04 335.48"/>
        <polygon class="cls-9" points="372.34 335.48 347.67 335.48 343.54 332.77 376.47 332.77 372.34 335.48"/>
        <polygon class="cls-9" points="410.64 335.48 385.97 335.48 381.84 332.77 414.77 332.77 410.64 335.48"/>
        <rect x="281.74" y="309.63" width="100.11" height="12.9"/>
        <polygon class="cls-6" points="354.37 392.91 364.3 402.31 393.56 402.31 402.45 392.91 354.37 392.91"/>
        <polygon class="cls-2" points="383.76 402.31 385.91 392.91 402.45 392.91 393.56 402.31 383.76 402.31"/>
        <polygon class="cls-2" points="375.2 402.31 370.2 392.91 354.37 392.91 364.3 402.31 375.2 402.31"/>
        <polygon class="cls-6" points="458.88 402.31 458.88 423.96 454.76 399.7 458.88 402.31"/>
        <rect class="cls-9" x="444.77" y="308.44" width="75.84" height="35.61"/>
        <rect x="398.31" y="309.02" width="29.2" height="18.81"/>
        <rect x="436.3" y="309.02" width="75.58" height="17.24"/>
        <rect x="742.71" y="307.5" width="35.28" height="18.2"/>
        <rect x="787.48" y="307.5" width="57.09" height="12.9"/>
        <rect x="691.15" y="321.94" width="16.99" height="13.54"/>
        <rect x="541.75" y="325.94" width="16.99" height="10.7"/>
        <rect x="478.48" y="321.94" width="15.6" height="8.05"/>
        <rect class="cls-2" x="544.63" y="374.47" width="38.13" height="3.28"/>
        <polygon class="cls-5" points="464.08 394.84 464.08 399.7 474.74 403.58 497.03 399.21 497.03 394.84 464.08 394.84"/>
        <g class="cls-12">
          <rect class="cls-3" x="576.58" y="321.94" width="1.4" height="39.9"/>
          <rect class="cls-3" x="586.62" y="321.94" width="1.4" height="39.9"/>
          <rect class="cls-3" x="596.67" y="321.94" width="1.4" height="39.9"/>
          <rect class="cls-3" x="606.71" y="321.94" width="1.4" height="39.9"/>
          <rect class="cls-3" x="624.36" y="326.49" width="1.4" height="39.9"/>
          <rect class="cls-3" x="636.25" y="326.49" width="1.4" height="39.9"/>
          <rect class="cls-3" x="648.15" y="326.49" width="1.4" height="39.9"/>
          <rect class="cls-3" x="660.04" y="326.49" width="1.4" height="39.9"/>
          <rect class="cls-3" x="671.94" y="326.49" width="1.4" height="39.9"/>
        </g>
        <rect class="cls-2" x="567.22" y="361.84" width="48.68" height="2.09"/>
        <rect class="cls-2" x="615.9" y="365.35" width="60.63" height="2.09"/>
        <rect x="529.45" y="309.63" width="53.31" height="22.54"/>
        <rect x="582.76" y="309.63" width="28.12" height="27.74"/>
        <rect x="637.81" y="309.63" width="93.77" height="17.6"/>
        <rect x="624.36" y="309.32" width="37.5" height="21.19"/>
      </g>
      <g>
        <path d="M65.56,318.57s116.17,1.82,233.97-10.03c0,0-77.44,13.97-233.97,15.49v-5.47Z"/>
        <path d="M65.56,314.24s116.17,1.04,233.97-5.7c0,0-77.44,7.95-233.97,8.81v-3.11Z"/>
        <polygon points="97.78 316 95.4 315.64 78.45 319.05 97.78 316"/>
        <polygon points="65.56 316 67.33 315.64 79.93 319.05 65.56 316"/>
        <polygon points="119.44 316 117.07 315.64 100.11 319.05 119.44 316"/>
        <polygon points="87.23 316 88.99 315.64 101.59 319.05 87.23 316"/>
        <polygon points="141.1 316 138.73 315.64 121.77 319.05 141.1 316"/>
        <polygon points="108.89 316 110.65 315.64 123.25 319.05 108.89 316"/>
        <polygon points="163.65 315.4 161.27 315.04 144.32 318.46 163.65 315.4"/>
        <polygon points="131.44 315.4 133.2 315.04 145.8 318.46 131.44 315.4"/>
        <polygon points="186.43 314.65 184.06 314.29 167.1 317.71 186.43 314.65"/>
        <polygon points="154.22 314.65 155.98 314.29 168.58 317.71 154.22 314.65"/>
        <polygon points="204.37 314 202.39 313.7 188.25 316.55 204.37 314"/>
        <polygon points="177.51 314 178.98 313.7 189.49 316.54 177.51 314"/>
        <polygon points="224.27 313.38 222.34 313.17 209.29 316.4 224.27 313.38"/>
        <polygon points="198.72 314.38 200.07 314.03 210.47 316.35 198.72 314.38"/>
        <polygon points="242.14 312.1 240.46 311.88 229.08 315.12 242.14 312.1"/>
        <polygon points="219.86 313.09 221.04 312.75 230.11 315.07 219.86 313.09"/>
        <polygon points="157.11 341.09 134.57 337.07 150.58 342.04 157.11 341.09"/>
        <polygon points="168.39 338.73 145.84 334.71 161.85 339.68 168.39 338.73"/>
        <polygon points="180.62 336.83 158.08 332.81 174.09 337.78 180.62 336.83"/>
        <polygon points="190.93 335.32 168.39 331.31 184.4 336.28 190.93 335.32"/>
        <polygon points="196.38 332.85 175.89 329.2 190.44 333.72 196.38 332.85"/>
        <polygon points="203.32 330.53 184.49 327.17 197.86 331.32 203.32 330.53"/>
        <polygon points="208.13 328.62 191.79 325.71 203.39 329.31 208.13 328.62"/>
        <polygon points="212.04 326.91 197.66 324.34 207.88 327.51 212.04 326.91"/>
        <polygon points="215.62 324.87 203.77 322.76 212.18 325.37 215.62 324.87"/>
        <polygon points="219.36 322.95 209.09 321.13 216.38 323.39 219.36 322.95"/>
        <polygon points="138.62 341.63 119.79 338.28 133.16 342.43 138.62 341.63"/>
        <g>
          <polygon points="65.57 326.92 70.22 322.44 65.57 328.59 65.57 326.92"/>
          <path d="M229.65,314.67c-4.6,1.68-9.14,3.25-13.64,4.75h0s-.05,.01-.05,.01c-1.55,.51-3.1,1.02-4.63,1.51h0s-.1,.03-.1,.03c-1.83,.58-3.64,1.15-5.45,1.71h0s-.04,.01-.04,.01c-2.17,.67-4.34,1.31-6.48,1.94h0s-.04,.01-.04,.01c-4.13,1.2-8.22,2.34-12.25,3.39h0s0,0,0,0c-2.58,.68-5.14,1.32-7.68,1.93h0s-.03,0-.03,0c-46.89,11.4-86.27,13.08-113.7,11.97v-3.09c1.56,.09,3.13,.18,4.69,.24l4.08-1.54,16.16-15.74-12.06,15.63,.04,1.9c3.21,.05,6.42,.06,9.62,.02l4.84-1.86,16.58-16.2-12.47,16.08v1.76c3.41-.13,6.81-.3,10.18-.52l4.37-1.68,16.58-16.2-12.47,16.08,.22,1.16c2.71-.23,5.41-.48,8.08-.76l3.51-1.35,16.08-15.71-12.1,15.6,.34,.59c2.73-.33,5.44-.68,8.12-1.06l3-1.15,15.24-14.89-11.46,14.78,.17,.25c1.82-.28,3.62-.57,5.41-.86l2.93-1.13,14.1-13.78-10.61,13.67,.11,.12c1.43-.25,2.84-.51,4.23-.77l3.09-1.19,12.96-12.66-9.75,12.57,.07,.06c1.42-.28,2.81-.57,4.19-.85l2.76-1.32,11.74-11.47-8.83,11.39v.21c.96-.21,1.91-.42,2.85-.63l2.3-1.19,10.28-10.04-7.73,9.97v.16c1.04-.24,2.07-.48,3.08-.72l10.16-9.92-7.13,9.2c.88-.21,1.75-.43,2.6-.64l.93-.32,8.71-8.33-5.72,7.65c.95-.24,1.88-.49,2.8-.73l1.35-.65,6.55-6.26-4.49,6c.74-.2,1.46-.4,2.18-.59l1.37-.7,4.84-4.47-3,4.28c.74-.21,1.46-.41,2.16-.61l1.23-.59,3.45-3.19-2.14,3.05c8.72-2.55,13.72-4.29,13.72-4.29Z"/>
        </g>
        <path d="M223.46,320.26h.01s-.03,.02-.03,.02c-.74,.58-1.49,1.14-2.25,1.69l.03,.02-.07,.02c-.9,.65-1.82,1.29-2.75,1.91h.01s-.03,.01-.03,.01c-1.12,.74-2.25,1.46-3.4,2.16h.01s-.03,.01-.03,.01c-2.22,1.34-4.49,2.59-6.82,3.76h0s0,0,0,0c-1.5,.75-3.02,1.45-4.56,2.13h.01s-.03,0-.03,0c-53.66,23.71-131.64,7.48-137.98,6.1v-3.61c2.57,.53,5.12,1.04,7.63,1.5l2.08-1.38-4.89-13.36,8.66,13.32,4.94,3.26c3.21,.49,6.35,.93,9.45,1.32l1.43-1.26-6.34-16.3,10.1,16.24,2.99,2.24c3.72,.37,7.37,.68,10.92,.9l1.68-1.73-7.21-18.06,10.96,17.99,2.77,2.21c3.14,.11,6.22,.17,9.22,.17l1.95-2.09-7.46-18.58,11.21,18.5,2.52,2.05c3.08-.1,6.07-.25,8.99-.45l1.76-1.89-7.46-18.58,11.21,18.5,1.88,1.35c2.26-.23,4.47-.48,6.62-.76l1.41-1.52-7.24-18.03,10.88,17.95,1.17,.69c2.14-.34,4.21-.71,6.23-1.1l1.2-1.29-6.86-17.08,10.3,17.01,.53,.3c1.34-.3,2.64-.61,3.92-.92l1.18-1.27-6.35-15.81,9.54,15.74,.27,.14c1-.27,1.97-.55,2.94-.83l1.24-1.33-5.83-14.53,8.76,14.46,.16,.07c.95-.31,1.87-.61,2.78-.93l.73-1.5-5.29-13.16,7.94,13.1,.3,.25c.62-.23,1.22-.46,1.82-.69l.48-1.35-4.63-11.52,6.95,11.47,.24,.19c.65-.27,1.28-.53,1.9-.8l-4.57-11.39,6.41,10.58c.53-.24,1.05-.47,1.56-.71l.44-.35-3.66-9.55,5.54,8.81c.56-.27,1.1-.54,1.63-.8l.36-.73-2.75-7.18,4.35,6.91c.42-.22,.83-.44,1.23-.66l.31-.79-1.81-5.13,3.29,4.93c.41-.23,.8-.46,1.18-.68l.32-.67-1.29-3.66,2.34,3.51c4.66-2.83,6.94-4.78,6.94-4.78-1.97,1.88-4.05,3.65-6.2,5.31Z"/>
      </g>
    </g>
    <rect id="fader" class="cls-1" x="65.56" y="310" width="868.87" height="142.57"/>
    <g id="city">
      <g id="City_5" data-name="City 5">
        <rect class="cls-8" x="324.16" y="140.43" width="10.27" height="166.19"/>
        <rect class="cls-5" x="287.07" y="156.27" width="12.19" height="152.32"/>
        <rect class="cls-6" x="464.08" y="143.69" width="44.61" height="162.35"/>
        <rect class="cls-5" x="406.55" y="140.43" width="26.45" height="165.61"/>
        <rect class="cls-6" x="425.59" y="129.2" width="33.29" height="176.84"/>
        <rect class="cls-2" x="354.37" y="147.43" width="48.07" height="159.19"/>
        <rect class="cls-6" x="317.23" y="89.9" width="8.55" height="30.06"/>
        <rect class="cls-6" x="318.15" y="84.99" width="6.49" height="4.91"/>
        <rect class="cls-5" x="370.84" y="147.71" width="15.13" height="158.33"/>
        <rect class="cls-6" x="319.31" y="71.68" width="4.16" height="13.31"/>
        <polygon class="cls-6" points="320.68 71.68 321.51 55.48 322.52 72.43 320.68 71.68"/>
        <polygon class="cls-2" points="314.09 102.97 334.22 140.43 324.16 140.43 324.16 156.27 310.64 156.27 314.09 102.97"/>
        <polygon class="cls-2" points="287.07 156.27 287.07 140.25 299.25 105.28 299.25 168.86 287.07 156.27"/>
        <rect class="cls-6" x="299.25" y="91.51" width="14.84" height="52.18"/>
        <rect class="cls-6" x="300.84" y="82.98" width="11.27" height="8.53"/>
        <rect class="cls-6" x="302.86" y="59.87" width="7.22" height="23.11"/>
        <polygon class="cls-6" points="305.24 59.87 306.67 31.75 308.43 61.18 305.24 59.87"/>
        <polygon class="cls-6" points="314.09 102.97 323.09 105.28 334.22 140.43 324.16 140.43 314.09 102.97"/>
        <polygon class="cls-6" points="354.37 147.43 364.3 129.2 393.56 129.2 402.45 147.43 354.37 147.43"/>
        <polygon class="cls-2" points="383.76 129.2 385.91 147.43 402.45 147.43 393.56 129.2 383.76 129.2"/>
        <polygon class="cls-2" points="375.2 129.2 370.2 147.43 354.37 147.43 364.3 129.2 375.2 129.2"/>
        <polygon class="cls-6" points="458.88 129.2 458.88 87.24 454.76 134.26 458.88 129.2"/>
        <polygon class="cls-5" points="464.08 143.69 464.08 134.26 474.74 126.75 497.03 135.22 497.03 143.69 464.08 143.69"/>
        <rect class="cls-2" x="299.25" y="143.69" width="24.9" height="163.81"/>
      </g>
      <g id="City_4" data-name="City 4">
        <rect class="cls-2" x="693.26" y="176.83" width="62.08" height="132.08"/>
        <rect class="cls-2" x="699.64" y="168.86" width="46.55" height="7.97"/>
        <rect class="cls-2" x="544.63" y="183.18" width="52.19" height="126.32"/>
        <rect class="cls-2" x="478.48" y="191.29" width="60.42" height="118.21"/>
        <rect class="cls-2" x="414.77" y="154.31" width="36.46" height="151.73"/>
        <rect class="cls-2" x="381.84" y="229.94" width="87.49" height="78.96"/>
        <rect class="cls-2" x="149.52" y="196.74" width="27.73" height="114.46"/>
        <rect class="cls-6" x="157.28" y="200.87" width="12.21" height="24.41"/>
        <rect class="cls-6" x="157.28" y="229.94" width="12.21" height="24.41"/>
        <rect class="cls-2" x="209.44" y="231.19" width="62.64" height="80"/>
        <polygon class="cls-2" points="267.2 223.86 215.06 223.86 217.78 231.19 264.47 231.19 267.2 223.86"/>
        <rect class="cls-2" x="226.31" y="219.38" width="11.81" height="11.81"/>
        <rect class="cls-2" x="544.63" y="176.83" width="38.13" height="6.36"/>
        <rect class="cls-2" x="567.22" y="203.63" width="48.68" height="105.87"/>
        <rect class="cls-2" x="615.9" y="200.87" width="60.63" height="106.63"/>
        <rect class="cls-2" x="149.52" y="195.23" width="7.76" height="5.64"/>
        <rect class="cls-2" x="169.49" y="195.23" width="7.76" height="5.64"/>
      </g>
      <g id="City_3" data-name="City 3">
        <rect class="cls-8" x="281.83" y="173.1" width="43.95" height="138.09"/>
        <rect class="cls-8" x="284.07" y="156.27" width="38.71" height="16.83"/>
        <rect class="cls-8" x="293.07" y="143.69" width="20.13" height="167.51"/>
        <polygon class="cls-8" points="402.73 245.15 329.92 245.15 317.72 265.2 414.92 265.2 402.73 245.15"/>
        <polygon class="cls-8" points="229.66 247.33 189.23 247.33 149.52 311.19 229.66 311.19 229.66 247.33"/>
        <rect class="cls-8" x="229.66" y="264.04" width="20.21" height="47.16"/>
        <rect class="cls-8" x="100.55" y="268.42" width="99.61" height="42.78"/>
        <g>
          <rect class="cls-2" x="226.97" y="274.58" width="2.68" height="8.08"/>
          <rect class="cls-2" x="210.25" y="274.58" width="2.68" height="8.08"/>
          <rect class="cls-2" x="193.52" y="274.58" width="2.68" height="8.08"/>
          <rect class="cls-2" x="176.8" y="274.58" width="2.68" height="8.08"/>
          <rect class="cls-2" x="160.07" y="274.58" width="2.68" height="8.08"/>
          <rect class="cls-2" x="143.35" y="274.58" width="2.68" height="8.08"/>
          <rect class="cls-2" x="126.62" y="274.58" width="2.68" height="8.08"/>
          <rect class="cls-2" x="109.9" y="274.58" width="2.68" height="8.08"/>
        </g>
        <g>
          <rect class="cls-2" x="226.97" y="289.68" width="2.68" height="8.08"/>
          <rect class="cls-2" x="210.25" y="289.68" width="2.68" height="8.08"/>
          <rect class="cls-2" x="193.52" y="289.68" width="2.68" height="8.08"/>
          <rect class="cls-2" x="176.8" y="289.68" width="2.68" height="8.08"/>
          <rect class="cls-2" x="160.07" y="289.68" width="2.68" height="8.08"/>
          <rect class="cls-2" x="143.35" y="289.68" width="2.68" height="8.08"/>
          <rect class="cls-2" x="126.62" y="289.68" width="2.68" height="8.08"/>
          <rect class="cls-2" x="109.9" y="289.68" width="2.68" height="8.08"/>
        </g>
        <rect class="cls-8" x="261.89" y="273.62" width="31.27" height="37.58"/>
        <rect class="cls-8" x="317.72" y="265.2" width="95.18" height="45.99"/>
      </g>
      <g id="City_2" data-name="City 2">
        <rect class="cls-9" x="704.9" y="224.84" width="82.59" height="86.36"/>
        <rect class="cls-9" x="792.68" y="273.73" width="106.76" height="39.29"/>
        <rect class="cls-9" x="567.22" y="207.67" width="49.8" height="101.83"/>
        <rect class="cls-9" x="615.9" y="200.87" width="60.63" height="108.63"/>
        <rect class="cls-9" x="305.24" y="264.04" width="122.16" height="47.16"/>
        <polygon class="cls-9" points="334.04 258.79 309.37 258.79 305.24 264.04 338.17 264.04 334.04 258.79"/>
        <polygon class="cls-9" points="372.34 258.79 347.67 258.79 343.54 264.04 376.47 264.04 372.34 258.79"/>
        <polygon class="cls-9" points="410.64 258.79 385.97 258.79 381.84 264.04 414.77 264.04 410.64 258.79"/>
        <rect class="cls-9" x="444.77" y="242.15" width="75.84" height="69.05"/>
        <g class="cls-12">
          <rect class="cls-3" x="576.58" y="207.67" width="1.4" height="77.35"/>
          <rect class="cls-3" x="586.62" y="207.67" width="1.4" height="77.35"/>
          <rect class="cls-3" x="596.67" y="207.67" width="1.4" height="77.35"/>
          <rect class="cls-3" x="606.71" y="207.67" width="1.4" height="77.35"/>
          <rect class="cls-3" x="624.36" y="198.85" width="1.4" height="77.35"/>
          <rect class="cls-3" x="636.25" y="198.85" width="1.4" height="77.35"/>
          <rect class="cls-3" x="648.15" y="198.85" width="1.4" height="77.35"/>
          <rect class="cls-3" x="660.04" y="198.85" width="1.4" height="77.35"/>
          <rect class="cls-3" x="671.94" y="198.85" width="1.4" height="77.35"/>
        </g>
      </g>
      <g id="City_1" data-name="City 1">
        <rect x="281.74" y="283.89" width="100.11" height="25.02"/>
        <rect x="398.31" y="273.62" width="29.2" height="36.47"/>
        <rect x="436.3" y="276.67" width="75.58" height="33.42"/>
        <rect x="742.71" y="277.74" width="35.28" height="35.28"/>
        <rect x="787.48" y="288.01" width="57.09" height="25.02"/>
        <rect x="691.15" y="258.79" width="16.99" height="26.24"/>
        <rect x="541.75" y="256.54" width="16.99" height="20.74"/>
        <rect x="478.48" y="269.42" width="15.6" height="15.6"/>
        <rect x="529.45" y="265.2" width="53.31" height="43.7"/>
        <rect x="582.76" y="255.13" width="28.12" height="53.78"/>
        <rect x="637.81" y="274.78" width="93.77" height="34.12"/>
        <rect x="624.36" y="268.42" width="37.5" height="41.09"/>
      </g>
    </g>
    <g id="bridge">
      <path d="M65.56,291.57s116.17-3.53,233.97,19.44c0,0-77.44-27.09-233.97-30.04v10.6Z"/>
      <path d="M65.56,299.96s116.17-2.01,233.97,11.05c0,0-77.44-15.41-233.97-17.08v6.03Z"/>
      <polygon points="97.78 296.55 95.4 297.25 78.45 290.63 97.78 296.55"/>
      <polygon points="65.56 296.55 67.33 297.25 79.93 290.63 65.56 296.55"/>
      <polygon points="119.44 296.55 117.07 297.25 100.11 290.63 119.44 296.55"/>
      <polygon points="87.23 296.55 88.99 297.25 101.59 290.63 87.23 296.55"/>
      <polygon points="141.1 296.55 138.73 297.25 121.77 290.63 141.1 296.55"/>
      <polygon points="108.89 296.55 110.65 297.25 123.25 290.63 108.89 296.55"/>
      <polygon points="163.65 297.7 161.27 298.4 144.32 291.78 163.65 297.7"/>
      <polygon points="131.44 297.7 133.2 298.4 145.8 291.78 131.44 297.7"/>
      <polygon points="186.43 299.16 184.06 299.86 167.1 293.24 186.43 299.16"/>
      <polygon points="154.22 299.16 155.98 299.86 168.58 293.24 154.22 299.16"/>
      <polygon points="204.37 300.43 202.39 301.01 188.25 295.49 204.37 300.43"/>
      <polygon points="177.51 300.43 178.98 301.01 189.49 295.49 177.51 300.43"/>
      <polygon points="224.27 301.63 222.34 302.04 209.29 295.77 224.27 301.63"/>
      <polygon points="198.72 299.7 200.07 300.36 210.47 295.86 198.72 299.7"/>
      <polygon points="242.14 304.11 240.46 304.52 229.08 298.26 242.14 304.11"/>
      <polygon points="219.86 302.18 221.04 302.84 230.11 298.35 219.86 302.18"/>
      <polygon points="157.11 247.91 134.57 255.69 150.58 246.06 157.11 247.91"/>
      <polygon points="168.39 252.48 145.84 260.27 161.85 250.63 168.39 252.48"/>
      <polygon points="180.62 256.16 158.08 263.95 174.09 254.31 180.62 256.16"/>
      <polygon points="190.93 259.08 168.39 266.87 184.4 257.23 190.93 259.08"/>
      <polygon points="196.38 263.88 175.89 270.95 190.44 262.2 196.38 263.88"/>
      <polygon points="203.32 268.38 184.49 274.89 197.86 266.84 203.32 268.38"/>
      <polygon points="208.13 272.07 191.79 277.71 203.39 270.73 208.13 272.07"/>
      <polygon points="212.04 275.4 197.66 280.37 207.88 274.22 212.04 275.4"/>
      <polygon points="215.62 279.35 203.77 283.44 212.18 278.38 215.62 279.35"/>
      <polygon points="219.36 283.06 209.09 286.61 216.38 282.22 219.36 283.06"/>
      <polygon points="138.62 246.85 119.79 253.35 133.16 245.31 138.62 246.85"/>
      <g>
        <polygon points="65.57 275.38 70.22 284.07 65.57 272.14 65.57 275.38"/>
        <path d="M229.65,299.12c-4.6-3.26-9.14-6.31-13.64-9.2h0s-.05-.03-.05-.03c-1.55-1-3.1-1.98-4.63-2.93v-.03s-.09-.03-.09-.03c-1.83-1.13-3.64-2.24-5.45-3.31h0s-.04-.02-.04-.02c-2.17-1.29-4.34-2.55-6.48-3.76h0s-.04-.02-.04-.02c-4.13-2.33-8.22-4.53-12.25-6.58h0s0,0,0,0c-2.58-1.31-5.14-2.55-7.68-3.75h0s-.03-.02-.03-.02c-46.89-22.1-86.27-25.35-113.7-23.2v5.98c1.56-.18,3.13-.34,4.69-.47l4.08,2.99,16.16,30.52-12.06-30.29,.04-3.68c3.21-.1,6.42-.12,9.62-.04l4.84,3.61,16.58,31.4-12.47-31.17v-3.42c3.41,.25,6.81,.59,10.18,1l4.37,3.25,16.58,31.4-12.47-31.17,.22-2.24c2.71,.45,5.41,.94,8.08,1.48l3.51,2.62,16.08,30.47-12.1-30.24,.34-1.14c2.73,.64,5.44,1.33,8.12,2.05l3,2.23,15.24,28.87-11.46-28.65,.17-.49c1.82,.54,3.62,1.1,5.41,1.67l2.93,2.19,14.1,26.71-10.61-26.51,.11-.23c1.43,.49,2.84,.99,4.23,1.49l3.09,2.3,12.96,24.55-9.75-24.36,.07-.12c1.42,.55,2.81,1.1,4.19,1.65l2.76,2.57,11.74,22.24-8.83-22.07v-.41c.96,.41,1.91,.81,2.85,1.22l2.3,2.31,10.28,19.47-7.73-19.32v-.32c1.04,.47,2.07,.94,3.08,1.4l10.16,19.24-7.13-17.83c.88,.42,1.75,.83,2.6,1.24l.93,.61,8.71,16.14-5.72-14.83c.95,.47,1.88,.94,2.8,1.41l1.35,1.25,6.55,12.15-4.49-11.64c.74,.39,1.46,.77,2.18,1.15l1.37,1.35,4.84,8.67-3-8.29c.74,.4,1.46,.8,2.16,1.19l1.23,1.15,3.45,6.19-2.14-5.91c8.72,4.94,13.72,8.31,13.72,8.31Z"/>
      </g>
      <path d="M223.46,288.29v-.02s-.02-.01-.02-.01c-.74-1.11-1.49-2.21-2.25-3.28l.03-.03-.07-.03c-.9-1.26-1.82-2.5-2.75-3.69v-.02s-.02-.01-.02-.01c-1.12-1.44-2.25-2.83-3.4-4.18v-.02s-.02,0-.02,0c-2.22-2.59-4.49-5.03-6.82-7.29h0s0,0,0,0c-1.5-1.45-3.02-2.81-4.56-4.13v-.02s-.02,0-.02,0c-53.66-45.96-131.64-14.5-137.98-11.82v7c2.57-1.03,5.12-2.01,7.63-2.92l2.08,2.68-4.89,25.89,8.66-25.82,4.94-6.32c3.21-.96,6.35-1.81,9.45-2.56l1.43,2.45-6.34,31.61,10.1-31.49,2.99-4.34c3.72-.72,7.37-1.31,10.92-1.75l1.68,3.36-7.21,35.02,10.96-34.87,2.77-4.28c3.14-.21,6.22-.32,9.22-.33l1.95,4.06-7.46,36.03,11.21-35.87,2.52-3.97c3.08,.19,6.07,.48,8.99,.87l1.76,3.66-7.46,36.03,11.21-35.87,1.88-2.61c2.26,.44,4.47,.93,6.62,1.48l1.41,2.94-7.24,34.95,10.88-34.8,1.17-1.34c2.14,.67,4.21,1.38,6.23,2.14l1.2,2.51-6.86,33.12,10.3-32.97,.53-.57c1.34,.58,2.64,1.18,3.92,1.79l1.18,2.46-6.35,30.65,9.54-30.51,.27-.27c1,.53,1.97,1.07,2.94,1.61l1.24,2.59-5.83,28.16,8.76-28.04,.16-.14c.95,.59,1.87,1.19,2.78,1.8l.73,2.9-5.29,25.52,7.94-25.41,.3-.48c.62,.44,1.22,.89,1.82,1.33l.48,2.61-4.63,22.33,6.95-22.24,.24-.37c.65,.51,1.28,1.03,1.9,1.54l-4.57,22.08,6.41-20.52c.53,.46,1.05,.92,1.56,1.37l.44,.69-3.66,18.52,5.54-17.07c.56,.52,1.1,1.04,1.63,1.56l.36,1.42-2.75,13.93,4.35-13.4c.42,.43,.83,.85,1.23,1.27l.31,1.53-1.81,9.94,3.29-9.55c.41,.45,.8,.89,1.18,1.32l.32,1.3-1.29,7.09,2.34-6.81c4.66,5.49,6.94,9.26,6.94,9.26-1.97-3.65-4.05-7.07-6.2-10.3Z"/>
    </g>
    <g id="horizon">
      <path d="M65.57,312.62c141.58-5.34,292.42-6.56,434.43-6.8,123.16,.23,257.39,1.19,380.13,5,0,0,27.15,.77,27.15,.77,0,0,27.15,1.02,27.15,1.02-213.93,1.91-655,1.91-868.87,0h0Z"/>
    </g>
  </g>
  <g id="Text">
    <text class="cls-16" transform="translate(424.99 414.47)"><tspan class="cls-13"><tspan class="cls-11" x="0" y="0">k</tspan><tspan class="cls-7" x="39.64" y="0">NO</tspan><tspan class="cls-11" x="128.38" y="0">w</tspan></tspan><tspan class="cls-10"><tspan x="-.41" y="51.61">buddies</tspan></tspan><tspan class="cls-14"><tspan x="75.87" y="76.18">llc</tspan></tspan></text>
  </g>
</svg>